# xmcd
#
# Track frame offsets: 
#        183
#        26070
#        40058
#        64183
#        82120
#        108720
#        130595
#        156658
#        179258
#        204433
#        227595
#        253708
#        279320
#
# Disc length: 4089 seconds
#
# Revision: 17
# Processed by: cddbd v1.5.2PL0 Copyright (c) Steve Scherf et al.
# Submitted via: ExactAudioCopy v1.0b4
#
DISCID=b50ff70d
DTITLE=Yello - Hands On Yello
DYEAR=1995
DGENRE=Electronic
TTITLE0=Dr. Van Steiner (Cosmic Baby Remix)
TTITLE1=Bostich (Westbam Remix)
TTITLE2=Ciel Ouvert (Jens Remix)
TTITLE3=You Gotta Say Yes To Another Excess - Great Mission (Jam and Spo
TTITLE3=on Remix)
TTITLE4=Crash Dance (Oliver Lieb Remix)
TTITLE5=Vicious Games (12'' Edit) (The Grid Remix)
TTITLE6=Oh Yeah (Plutone Remix)
TTITLE7=Live At The Roxy (Ilsa Gold Remix)
TTITLE8=I Love You (Hardsequencer Remix)
TTITLE9=L' Hotel (Carl Cox Remix)
TTITLE10=La Habanera (Carl Craig Remix)
TTITLE11=Excess (The Orb Remix)
TTITLE12=Lost Again (Moby Remix)
EXTD=
EXTT0=
EXTT1=
EXTT2=
EXTT3=
EXTT4=
EXTT5=
EXTT6=
EXTT7=
EXTT8=
EXTT9=
EXTT10=
EXTT11=
EXTT12=
PLAYORDER=
